{"title":"UEFA Champions League 2016-03-16 HDTV 1080p 2ch x265 [S-Less]","uid":13892529,"size":380340587,"categoryP":"video","categoryS":"hd___tv_shows","magnet":"?xt=urn:btih:928c2d00a56c8c63fe8b96100c724c5c6989004b&amp;dn=UEFA+Champions+League+2016-03-16+HDTV+1080p+2ch+x265+%5BS-Less%5D&amp;tr=udp%3A%2F%2Ftracker.leechers-paradise.org%3A6969&amp;tr=udp%3A%2F%2Fzer0day.ch%3A1337&amp;tr=udp%3A%2F%2Fopen.demonii.com%3A1337&amp;tr=udp%3A%2F%2Ftracker.coppersurfer.tk%3A6969&amp;tr=udp%3A%2F%2Fexodus.desync.com%3A6969","seeders":0,"leechers":1,"uploader":"soulessness","files":1,"time":1458220673,"description":"UEFA Champions League Highlights 2016-03-16 ITV HDTV 1080p 2ch x265 10bit [S-Less]\r\n\r\nAction from the concluding set of last-16 second-leg ties, including Barcelona v Arsenal at the Nou Camp, and Bayern Munich v Juventus at Allianz Arena. Plus, a look back at last night's fixtures, as Atletico Madrid hosted PSV Eindhoven at Estadio Vicente Calderon, and Manchester City welcomed Dynamo Kiev to Etihad Stadium. Mark Pougatch presents, with analysis from Roy Keane and Lee Dixon.\r\n\r\nMediaInfo:\r\n\r\nVideo\r\nID : 1\r\nFormat : HEVC\r\nFormat/Info : High Efficiency Video Coding\r\nFormat profile : Main   @Main\r\nCodec ID : V_MPEGH/ISO/HEVC\r\nDuration : 48mn 51s\r\nBit rate : 940 Kbps\r\nWidth : 1 920 pixels\r\nHeight : 1 080 pixels\r\nDisplay aspect ratio : 16:9\r\nFrame rate mode : Constant\r\nFrame rate : 25.000 fps\r\nColor space : YUV\r\nChroma subsampling : 4:2:0\r\nBit depth : 10 bits\r\nBits/(Pixel*Frame) : 0.018\r\nStream size : 328 MiB (91%)\r\nWriting library : x265 1.8+2-55a4a9b920ff:[Windows][GCC 5.2.0][64 bit] 10bit\r\nDefault : Yes\r\nForced : No\r\n\r\nAudio\r\nID : 2\r\nFormat : AAC\r\nFormat/Info : Advanced Audio Codec\r\nFormat profile : LC\r\nCodec ID : A_AAC\r\nDuration : 48mn 51s\r\nBit rate : 96.0 Kbps\r\nChannel(s) : 2 channels\r\nChannel positions : Front: L R\r\nSampling rate : 48.0 KHz\r\nFrame rate : 46.875 fps (1024 spf)\r\nCompression mode : Lossy\r\nDelay relative to video : 9ms\r\nStream size : 33.5 MiB (9%)\r\nLanguage : English\r\nDefault : Yes\r\nForced : No","torrent":{"xt":"urn:btih:928c2d00a56c8c63fe8b96100c724c5c6989004b","amp;dn":"UEFA+Champions+League+2016-03-16+HDTV+1080p+2ch+x265+%5BS-Less%5D","amp;tr":["udp%3A%2F%2Ftracker.leechers-paradise.org%3A6969","udp%3A%2F%2Fzer0day.ch%3A1337","udp%3A%2F%2Fopen.demonii.com%3A1337","udp%3A%2F%2Ftracker.coppersurfer.tk%3A6969","udp%3A%2F%2Fexodus.desync.com%3A6969"],"infoHash":"928c2d00a56c8c63fe8b96100c724c5c6989004b","infoHashBuffer":{"type":"Buffer","data":[146,140,45,0,165,108,140,99,254,139,150,16,12,114,76,92,105,137,0,75]},"announce":[],"urlList":[]}}